<svg xmlns="http://www.w3.org/2000/svg" width="64" height="64" viewBox="0 0 32 32"><path d="M16 0C7.163 0 0 7.163 0 16s7.163 16 16 16 16-7.163 16-16S24.837 0 16 0zm0 30.75C7.856 30.75 1.25 24.144 1.25 16S7.856 1.25 16 1.25 30.75 7.856 30.75 16 24.144 30.75 16 30.75zm-5.345-17.9h10.69c.413 0 .75.337.75.75s-.337.75-.75.75h-10.69c-.413 0-.75-.337-.75-.75s.337-.75.75-.75zm0 4.5h10.69c.413 0 .75.337.75.75s-.337.75-.75.75h-10.69c-.413 0-.75-.337-.75-.75s.337-.75.75-.75zm0 4.5h10.69c.413 0 .75.337.75.75s-.337.75-.75.75h-10.69c-.413 0-.75-.337-.75-.75s.337-.75.75-.75z" fill="#00bfb3"/></svg>
