<svg xmlns="http://www.w3.org/2000/svg" width="64" height="64" viewBox="0 0 32 32"><path d="M11.21 16.95c-.167.167-.167.438 0 .604l1.876 1.876c.167.167.438.167.604 0l1.876-1.876c.167-.167.167-.438 0-.604l-1.876-1.876c-.167-.167-.438-.167-.604 0zm-2.938-2.938c-.167.167-.167.438 0 .604l4.813 4.813c.167.167.438.167.604 0l4.813-4.813c.167-.167.167-.438 0-.604l-4.813-4.813c-.167-.167-.438-.167-.604 0zm-2.938-2.938c-.167.167-.167.438 0 .604l7.75 7.75c.167.167.438.167.604 0l7.75-7.75c.167-.167.167-.438 0-.604l-7.75-7.75c-.167-.167-.438-.167-.604 0zm-2.938-2.938c-.167.167-.167.438 0 .604l10.688 10.688c.167.167.438.167.604 0L24.376 8.74c.167-.167.167-.438 0-.604L13.688-2.552c-.167-.167-.438-.167-.604 0zm-2.938-2.938c-.167.167-.167.438 0 .604l13.625 13.625c.167.167.438.167.604 0L27.313 5.802c.167-.167.167-.438 0-.604L13.688-8.427c-.167-.167-.438-.167-.604 0zm-2.938-2.938c-.167.167-.167.438 0 .604l16.563 16.563c.167.167.438.167.604 0L30.25 2.865c.167-.167.167-.438 0-.604L13.688-14.302c-.167-.167-.438-.167-.604 0zm-2.938-2.938c-.167.167-.167.438 0 .604l19.5 19.5c.167.167.438.167.604 0L33.188-.073c.167-.167.167-.438 0-.604l-19.5-19.5c-.167-.167-.438-.167-.604 0zm-2.938-2.938c-.167.167-.167.438 0 .604l22.438 22.438c.167.167.438.167.604 0L36.125-3.01c.167-.167.167-.438 0-.604L13.688-26.052c-.167-.167-.438-.167-.604 0zm-2.938-2.938c-.167.167-.167.438 0 .604l25.375 25.375c.167.167.438.167.604 0L39.063-5.948c.167-.167.167-.438 0-.604L13.688-31.927c-.167-.167-.438-.167-.604 0zm-2.938-2.938c-.167.167-.167.438 0 .604L28.313-8.885c.167.167.438.167.604 0L42-22.969c.167-.167.167-.438 0-.604L28.917-36.656c-.167-.167-.438-.167-.604 0z" fill="#59666c"/><path d="M11.21 16.95c-.167.167-.167.438 0 .604l1.876 1.876c.167.167.438.167.604 0l1.876-1.876c.167-.167.167-.438 0-.604l-1.876-1.876c-.167-.167-.438-.167-.604 0zm-2.938-2.938c-.167.167-.167.438 0 .604l4.813 4.813c.167.167.438.167.604 0l4.813-4.813c.167-.167.167-.438 0-.604l-4.813-4.813c-.167-.167-.438-.167-.604 0zm-2.938-2.938c-.167.167-.167.438 0 .604l7.75 7.75c.167.167.438.167.604 0l7.75-7.75c.167-.167.167-.438 0-.604l-7.75-7.75c-.167-.167-.438-.167-.604 0zm-2.938-2.938c-.167.167-.167.438 0 .604l10.688 10.688c.167.167.438.167.604 0L24.376 8.74c.167-.167.167-.438 0-.604L13.688-2.552c-.167-.167-.438-.167-.604 0zm-2.938-2.938c-.167.167-.167.438 0 .604l13.625 13.625c.167.167.438.167.604 0L27.313 5.802c.167-.167.167-.438 0-.604L13.688-8.427c-.167-.167-.438-.167-.604 0zm-2.938-2.938c-.167.167-.167.438 0 .604l16.563 16.563c.167.167.438.167.604 0L30.25 2.865c.167-.167.167-.438 0-.604L13.688-14.302c-.167-.167-.438-.167-.604 0zm-2.938-2.938c-.167.167-.167.438 0 .604l19.5 19.5c.167.167.438.167.604 0L33.188-.073c.167-.167.167-.438 0-.604l-19.5-19.5c-.167-.167-.438-.167-.604 0zm-2.938-2.938c-.167.167-.167.438 0 .604l22.438 22.438c.167.167.438.167.604 0L36.125-3.01c.167-.167.167-.438 0-.604L13.688-26.052c-.167-.167-.438-.167-.604 0zm-2.938-2.938c-.167.167-.167.438 0 .604l25.375 25.375c.167.167.438.167.604 0L39.063-5.948c.167-.167.167-.438 0-.604L13.688-31.927c-.167-.167-.438-.167-.604 0zm-2.938-2.938c-.167.167-.167.438 0 .604L28.313-8.885c.167.167.438.167.604 0L42-22.969c.167-.167.167-.438 0-.604L28.917-36.656c-.167-.167-.438-.167-.604 0z" fill="#bcae79"/></svg>
