<svg xmlns="http://www.w3.org/2000/svg" width="64" height="64" viewBox="0 0 32 32"><path d="M15.998 28.895a1  width="64" height="64" viewBox="0 0 32 32"><path d="M15.998 28.895a1.51 1.51 0 0 1-.748-.2l-2.382-1.41c-.356-.2-.181-.27-.064-.31a4.744 4.744 0 0 0 1.083-.493.173.173 0 0 1 .17.013l1.83 1.085a.225.225 0 0 0 .212 0l7.145-4.127a.215.215 0 0 0 .104-.186V11.19a.221.221 0 0 0-.104-.188l-7.145-4.12a.212.212 0 0 0-.21 0l-7.145 4.12a.22.22 0 0 0-.112.188v8.248c0 .077.04.15.105.187l1.96 1.13c1.067.533 1.715-.095 1.715-.726v-8.15a.2.2 0 0 1 .2-.2h.904a.2.2 0 0 1 .2.2v8.15c0 1.426-.776 2.243-2.126 2.243-.415 0-.742 0-1.654-.45l-1.88-1.08a1.52 1.52 0 0 1-.75-1.313V11.19c0-.54.288-1.04.75-1.313L15.25 5.75a1.576 1.576 0 0 1 1.5 0l7.146 4.127a1.52 1.52 0 0 1 .747 1.313v8.248a1.523 1.523 0 0 1-.75 1.313l-7.144 4.127a1.51 1.51 0 0 1-.75.2zm2.21-5.67c-3.12 0-3.77-1.432-3.77-2.636a.2.2 0 0 1 .2-.2h.92a.2.2 0 0 1 .198.17c.137.9.54 1.35 2.44 1.35 1.502 0 2.14-.34 2.14-1.13 0-.456-.18-.797-2.518-1.026-1.954-.193-3.165-.625-3.165-2.186 0-1.44 1.216-2.3 3.25-2.3 2.287 0 3.417.793 3.57 2.5a.2.2 0 0 1-.055.152.197.197 0 0 1-.145.063h-.93a.198.198 0 0 1-.193-.152c-.214-1.015-.738-1.34-2.247-1.34-1.653 0-1.845.576-1.845 1.01 0 .524.226.676 2.44.973 2.19.297 3.24.716 3.24 2.23s-1.33 2.434-3.66 2.434z" fill="#539e43"/></svg>
