<svg xmlns="http://www.w3.org/2000/svg" width="64" height="64" viewBox="0 0 32 32"><path d="M20.937 2.322c-.427-.047-.862-.07-1.305-.07-3.282 0-6.272 1.387-8.378 3.615-.07.07-.14.187-.234.327-.47.07-.94.14-.14.234-1.922 2.615-3.075 5.83-3.075 9.305 0 .375.023.75.047 1.125v.023c.047.515.117 1.03.21 1.547v.047c.094.515.21 1.03.352 1.522v.047c.14.492.305.983.492 1.453.023.07.047.117.07.187.163.422.352.845.54 1.245.047.94.094.187.14.28.234.445.469.89.727 1.313.047.7.094.14.14.21.258.398.54.797.82 1.172.07.94.14.164.21.258.305.375.61.75.938 1.102.7.7.117.14.187.21.352.352.704.68 1.078 1.008.7.047.117.117.187.164.398.328.797.633 1.22.915.047.023.07.047.117.07.422.28.867.54 1.313.774l.187.094c.445.21.89.398 1.36.563.047.023.117.047.164.07.47.164.962.305 1.453.422.07.023.14.023.21.047.492.094.983.164 1.5.21.07 0 .14.023.21.023.54.047 1.078.07 1.617.07 8.075 0 14.627-6.552 14.627-14.627 0-7.622-5.807-13.877-13.245-14.58zm9.68 12.378c-.047.117-.094.234-.14.352-.047.117-.117.234-.164.352-.047.117-.117.234-.187.352-.07.117-.14.234-.21.352-.07.117-.14.21-.21.328-.07.117-.164.21-.234.328-.07.094-.164.21-.234.305s-.164.21-.258.305c-.094.094-.164.187-.258.28-.094.094-.187.187-.28.28-.094.094-.187.164-.28.258-.094.094-.21.164-.305.258-.117.07-.21.164-.328.234-.047.023-.07.07-.117.094-.023-.023-.047-.023-.07-.047-.187-.14-.375-.28-.562-.445-.07-.047-.14-.117-.21-.164-.164-.14-.328-.28-.492-.445-.07-.07-.14-.14-.21-.21-.164-.164-.328-.328-.469-.492-.07-.07-.117-.14-.187-.21-.187-.21-.352-.422-.515-.633-.047-.07-.094-.14-.14-.21-.14-.187-.258-.375-.375-.562-.047-.07-.094-.164-.14-.234-.117-.187-.21-.375-.305-.562-.047-.094-.07-.164-.117-.258-.094-.187-.164-.375-.234-.562-.023-.07-.07-.164-.094-.234-.07-.21-.14-.422-.187-.633-.023-.07-.047-.14-.047-.21-.047-.234-.094-.445-.117-.68 0-.047-.023-.094-.023-.14-.023-.28-.047-.562-.047-.845v-.047c0-.234.023-.47.047-.704 0-.07.023-.14.023-.21.023-.187.07-.375.117-.562.023-.094.047-.187.07-.28.047-.164.094-.328.164-.492.023-.07.047-.14.07-.21.07-.164.14-.328.234-.492.023-.047.047-.094.07-.14.117-.21.234-.422.375-.633.047-.07.117-.164.164-.234.07-.117.164-.21.258-.328.07-.094.14-.164.21-.258.117-.117.234-.258.375-.375.07-.07.14-.14.21-.187.047-.047.117-.094.164-.14.047-.047.117-.07.164-.117.047-.023.07-.047.117-.07.164-.094.328-.164.492-.234.07-.023.14-.047.21-.07.164-.047.328-.094.492-.117.07-.023.14-.023.21-.047.187-.023.375-.047.562-.047h.047c.187 0 .375.023.562.047.07.023.14.023.21.047.164.023.328.07.492.117.07.023.14.047.21.07.164.07.328.14.492.234.047.023.07.047.117.07.047.047.117.07.164.117.047.047.117.094.164.14.07.047.14.117.21.187.14.117.258.258.375.375.07.094.14.164.21.258.094.117.187.21.258.328.07.07.117.164.164.234.14.21.258.422.375.633.023.047.047.094.07.14.094.164.164.328.234.492.023.07.047.14.07.21.07.164.117.328.164.492.023.094.047.187.07.28.047.187.07.375.117.562.023.07.023.14.023.21.023.234.047.47.047.704v.047c0 .28-.023.562-.047.845 0 .047-.023.094-.023.14-.023.234-.07.445-.117.68-.023.07-.047.14-.047.21-.07.21-.117.422-.187.633-.023.07-.07.164-.094.234-.07.187-.14.375-.234.562-.047.094-.07.164-.117.258-.094.187-.187.375-.305.562-.047.07-.094.164-.14.234-.117.187-.234.375-.375.562-.047.07-.094.14-.14.21-.164.21-.328.422-.515.633-.07.07-.117.14-.187.21-.164.164-.305.328-.469.492-.07.07-.14.14-.21.21-.164.164-.328.305-.492.445-.07.047-.14.117-.21.164-.187.164-.375.305-.562.445-.023.023-.047.023-.07.047-.047-.023-.07-.07-.117-.094-.117-.07-.21-.164-.328-.234-.094-.094-.21-.164-.305-.258-.094-.094-.187-.164-.28-.258-.094-.094-.187-.187-.28-.28-.094-.094-.164-.187-.258-.28-.094-.094-.164-.21-.258-.305s-.164-.21-.234-.305c-.07-.117-.164-.21-.234-.328-.07-.117-.14-.21-.21-.328-.07-.117-.14-.234-.21-.352-.07-.117-.117-.234-.187-.352-.047-.117-.117-.234-.164-.352-.047-.117-.094-.234-.14-.352-.047-.117-.094-.234-.117-.352-.047-.117-.07-.234-.117-.352-.023-.117-.07-.234-.094-.352-.023-.117-.047-.234-.07-.352-.023-.117-.047-.234-.047-.352-.023-.117-.023-.234-.047-.352 0-.117-.023-.234-.023-.352 0-.117 0-.234-.023-.352v-.703c0-.117 0-.234.023-.352 0-.117.023-.234.023-.352.023-.117.023-.234.047-.352.023-.117.047-.234.047-.352.023-.117.047-.234.07-.352.023-.117.07-.234.094-.352.047-.117.07-.234.117-.352.047-.117.094-.234.117-.352.047-.117.094-.234.14-.352.047-.117.094-.234.164-.352.047-.117.117-.234.187-.352.07-.117.14-.234.21-.352.07-.117.14-.21.21-.328.07-.117.164-.21.234-.328.07-.094.164-.21.234-.305s.164-.21.258-.305c.094-.094.164-.187.258-.28.094-.094.187-.187.28-.28.094-.094.187-.164.28-.258.094-.094.21-.164.305-.258.117-.07.21-.164.328-.234.117-.07.234-.14.352-.21.117-.07.234-.14.352-.21.117-.047.234-.117.352-.187.117-.047.234-.117.352-.164.117-.047.234-.094.352-.14.117-.047.234-.094.352-.117.117-.047.234-.07.352-.117.117-.023.234-.07.352-.094.117-.023.234-.047.352-.07.117-.023.234-.047.352-.047.117-.023.234-.023.352-.047.117 0 .234-.023.352-.023.117 0 .234 0 .352-.023h.703c.117 0 .234 0 .352.023.117 0 .234.023.352.023.117.023.234.023.352.047.117.023.234.047.352.047.117.023.234.047.352.07.117.023.234.07.352.094.117.047.234.07.352.117.117.023.234.07.352.117.117.047.234.094.352.14.117.047.234.117.352.164.117.07.234.117.352.187.117.07.234.14.352.21.117.07.234.14.352.21.117.07.21.164.328.234.094.094.21.164.305.258.094.094.187.164.28.258.094.094.187.187.28.28.094.094.164.187.258.28.094.094.164.21.258.305s.164.21.234.305c.07.117.164.21.234.328.07.117.14.21.21.328.07.117.14.234.21.352.07.117.117.234.187.352.047.117.117.234.164.352.047.117.094.234.14.352.047.117.094.234.117.352.047.117.07.234.117.352.023.117.07.234.094.352.023.117.047.234.07.352.023.117.047.234.047.352.023.117.023.234.047.352 0 .117.023.234.023.352 0 .117 0 .234.023.352v.703c0 .117 0 .234-.023.352 0 .117-.023.234-.023.352-.023.117-.023.234-.047.352-.023.117-.047.234-.047.352-.023.117-.047.234-.07.352-.023.117-.07.234-.094.352-.047.117-.07.234-.117.352-.047.117-.094.234-.117.352-.047.117-.094.234-.14.352z" fill="#68bd45"/></svg>
