<svg xmlns="http://www.w3.org/2000/svg" width="64" height="64" viewBox="0 0 32 32"><path d="M15.155 0H12.08v2.37h3.075zm4.64 15.155h2.37v-3.075h-2.37zm-9.28-3.075H7.445v3.075h3.07zm4.64 7.52h2.37v-3.075h-2.37zm0-15.04h2.37V1.485h-2.37zm4.64 22.555h2.37V24.04h-2.37zm-9.28-3.075H7.445v3.075h3.07zm13.92-4.445h3.075v-2.37H24.44zm-22.555 0h3.075v-2.37H1.88zm18.56 7.52h3.075V24.04h-3.075zm-13.92-3.075H3.445v3.075h3.07zm13.92-19.48h3.075V1.485h-3.075zm-13.92 3.075H3.445v3.075h3.07zm8.64 0h3.075V7.445h-3.075z" fill="#e97627"/><path d="M15.155 15.155h2.37v-3.075h-2.37zm0 7.52h2.37V19.6h-2.37zm4.64-3.075h3.075v-2.37h-3.075zm-9.28 0h3.075v-2.37h-3.075zm4.64-12.075h2.37V4.445h-2.37zm0 24.925h2.37v-3.075h-2.37zm4.64-20.48h3.075V8.89h-3.075zm-9.28 0h3.075V8.89h-3.075zm13.92 0h3.075V8.89H24.44zm-22.555 0h3.075V8.89H1.88zm18.56 16.04h3.075v-3.075h-3.075zm-13.92 0h3.075v-3.075H6.52z" fill="#e97627"/></svg>
